<svg xmlns="http://www.w3.org/2000/svg" xmlns:xlink="http://www.w3.org/1999/xlink" viewBox="0 0 320.39 320.44">
  <defs>
    <style>
      .cls-1 {
      fill: url(#radial-gradient-2);
      }

      .cls-1, .cls-2 {
      mix-blend-mode: color-dodge;
      }

      .cls-3 {
      opacity: .43;
      }

      .cls-3, .cls-4 {
      mix-blend-mode: screen;
      }

      .cls-3, .cls-5 {
      fill: #3d243e;
      }

      .cls-4 {
      opacity: .65;
      }

      .cls-4, .cls-6, .cls-7, .cls-8 {
      fill: #a62e3a;
      }

      .cls-9 {
      stroke: #fff;
      }

      .cls-9, .cls-10, .cls-11, .cls-12 {
      stroke-width: .63px;
      }

      .cls-9, .cls-10, .cls-11, .cls-12, .cls-13 {
      fill: none;
      stroke-linecap: round;
      stroke-linejoin: round;
      }

      .cls-10 {
      stroke: #0032d0;
      }

      .cls-14, .cls-15 {
      fill: #fabd3c;
      }

      .cls-16 {
      fill: #fff;
      }

      .cls-17 {
      fill: #ffc33b;
      }

      .cls-18 {
      fill: #e4640a;
      }

      .cls-19 {
      fill: #6bb1a2;
      }

      .cls-20 {
      fill: #e17022;
      }

      .cls-21, .cls-22 {
      fill: #140716;
      }

      .cls-23 {
      fill: #1d111e;
      }

      .cls-24 {
      fill: #2b232d;
      }

      .cls-25 {
      fill: #84529c;
      }

      .cls-26, .cls-27 {
      fill: #61376b;
      }

      .cls-28 {
      fill: #5e2600;
      }

      .cls-11 {
      stroke: #268e26;
      }

      .cls-12 {
      stroke: #d30000;
      }

      .cls-13 {
      stroke: #1d111e;
      stroke-width: .68px;
      }

      .cls-13, .cls-29, .cls-7, .cls-8, .cls-15, .cls-27, .cls-22, .cls-30, .cls-31, .cls-32 {
      mix-blend-mode: multiply;
      }

      .cls-13, .cls-27, .cls-22, .cls-30 {
      opacity: .5;
      }

      .cls-29 {
      fill: #583929;
      opacity: .3;
      }

      .cls-7 {
      opacity: .28;
      }

      .cls-8 {
      opacity: .35;
      }

      .cls-15 {
      opacity: .9;
      }

      .cls-2 {
      fill: url(#radial-gradient);
      }

      .cls-33 {
      isolation: isolate;
      }

      .cls-31 {
      opacity: .48;
      }

      .cls-32 {
      opacity: .78;
      }
    </style>
    <radialGradient id="radial-gradient" cx="130.13" cy="122.81" fx="130.13" fy="122.81" r="15.25"
                    gradientTransform="translate(-2.68 41.86) rotate(-1.85) scale(1 .69)"
                    gradientUnits="userSpaceOnUse">
      <stop offset=".17" stop-color="#662346"/>
      <stop offset="1" stop-color="#662346" stop-opacity="0"/>
    </radialGradient>
    <radialGradient id="radial-gradient-2" cx="204.57" cy="120.89" fx="204.57" fy="120.89" r="15.25"
                    gradientTransform="translate(-2.6 43.67) rotate(-1.85) scale(1 .69)" xlink:href="#radial-gradient"/>
  </defs>
  <g class="cls-33">
    <g id="_Слой_2">
      <g id="OBJECTS">
        <g>
          <g>
            <g>
              <path class="cls-26"
                    d="M315.07,59.11c-.75-3.85-6.22-12.97-9.64-14.9-3.42-1.92-14.2-3.67-16.19-5.47-4.75-4.31-7.44-13.04-1.02-13.29,6.01-.24,10.98-5.61,11.21-7.8,.23-2.19,2.14-7.62-10.19-17.64,3.46,8,4.23,13.27,2.03,18.36-2.19,5.08-17.31,6.62-14.56,11.43,1.25,2.2,.24,12.67,2.06,14.43,5.26,5.1,16.18,8.09,16.15,10.22-.03,2.13-2.74,11.71-6.55,11.85-3.8,.14-6.57-2.48-6.95-4.65-.38-2.16,.46-5.56,4.18-6.35-3.12-4.46-12.48-1.51-13.26,.91-.79,2.42-.15,12.37,4,15.89,4.15,3.52,8.77,2.4,14.19,2.93,5.34,.52,7.99,4.17,12.73,1.67,4.74-2.5,12.85-12.31,11.82-17.57Z"/>
              <g class="cls-31">
                <path class="cls-25"
                      d="M315.07,59.11c-.75-3.85-6.22-12.97-9.64-14.9-.22-.12-.46-.24-.73-.36,.16,.89,.62,1.75,1.19,2.47,.83,1.03,1.86,1.87,2.7,2.89,2.1,2.56,2.77,6.12,2.21,9.39-.56,3.27-2.25,6.26-4.38,8.8-1.92,2.28-4.55,4.36-7.52,4.15,3.21-4.41,4.26-10.33,2.75-15.57-1.02,2.8-2.04,5.62-3.6,8.16-1.55,2.54-3.69,4.81-6.41,6.03-4.74,2.12-10.71,.5-14.18-3.36-2.91-3.24-4.09-7.77-3.64-12.11-.78,.48-1.34,1.01-1.51,1.52-.79,2.42-.15,12.37,4,15.89,4.15,3.52,8.77,2.4,14.19,2.93,5.34,.52,7.99,4.17,12.73,1.67,4.74-2.5,12.85-12.31,11.82-17.57Z"/>
                <path class="cls-25"
                      d="M278.77,44.21c2.36,2.29,5.87,4.15,9.01,5.71-1.26-1.02-2.49-2.08-3.68-3.19-1.56-1.46-3.1-3.09-3.64-5.16-.66-2.55,.35-5.29-.22-7.85-.25-1.11-.78-2.13-1.09-3.22-.31-1.09-.36-2.35,.28-3.28,.86-1.25,2.57-1.47,4.01-1.95,1.97-.66,3.69-2.03,4.78-3.8,.05-.08,.09-.18,.14-.27-4.97,3.05-13.82,4.81-11.66,8.59,1.25,2.2,.24,12.67,2.06,14.43Z"/>
              </g>
            </g>
            <g>
              <path class="cls-26"
                    d="M11.74,136.03c.67-3.4,5.55-11.46,8.61-13.16,3.06-1.7,10.08-3.92,11.86-5.51,4.25-3.81,6.66-10.17,.93-10.4-5.37-.21-7.23-5.63-7.43-7.57-.2-1.93-1.73-9.28,9.1-15.59-3.09,7.07-3.77,11.73-1.81,16.22,1.96,4.49,15.47,5.85,13.01,10.1-1.12,1.94-.22,11.19-1.84,12.74-3.16,3.02-8.6,5.21-11.82,6.89-1.57,.82-1.44,4.36-1.43,4.98,.03,1.88,1.28,7.5,4.67,7.63,3.4,.12,5.87-2.19,6.21-4.11,.34-1.91-.41-4.91-3.73-5.61,2.78-3.94,11.15-1.33,11.85,.8,.7,2.14,.14,10.93-3.57,14.04-3.71,3.11-7.83,2.12-12.67,2.59-4.77,.46-7.13,3.68-11.37,1.47-4.24-2.21-11.48-10.87-10.56-15.52Z"/>
              <g class="cls-31">
                <path class="cls-25"
                      d="M11.74,136.03c.67-3.4,5.55-11.46,8.61-13.16,.19-.11,.41-.21,.65-.32-.14,.79-.55,1.55-1.07,2.18-.74,.91-1.67,1.65-2.41,2.55-1.88,2.26-2.47,5.41-1.97,8.29,.5,2.89,2.01,5.53,3.92,7.77,1.71,2.01,4.07,3.86,6.72,3.67-2.87-3.9-3.81-9.12-2.46-13.76,.91,2.47,1.82,4.96,3.21,7.21,1.39,2.24,3.29,4.25,5.72,5.32,4.23,1.87,9.56,.44,12.66-2.97,2.6-2.86,3.65-6.86,3.25-10.7,.7,.43,1.2,.89,1.35,1.34,.7,2.14,.14,10.93-3.57,14.04-3.71,3.11-7.83,2.12-12.67,2.59-4.77,.46-7.13,3.68-11.37,1.47-4.24-2.21-11.48-10.87-10.56-15.52Z"/>
                <path class="cls-25"
                      d="M44.17,122.87c-2.11,2.02-5.24,3.67-8.05,5.04,1.12-.9,2.23-1.84,3.28-2.82,1.39-1.29,2.77-2.73,3.25-4.56,.59-2.25-.32-4.67,.2-6.94,.22-.98,.69-1.88,.97-2.85,.28-.96,.33-2.07-.25-2.9-.77-1.1-2.3-1.3-3.58-1.72-1.76-.58-3.3-1.79-4.27-3.35-.05-.07-.08-.16-.12-.24,4.44,2.69,12.34,4.25,10.41,7.59-1.12,1.94-.22,11.19-1.84,12.74Z"/>
              </g>
            </g>
          </g>
          <g>
            <g>
              <g>
                <g>
                  <path class="cls-11" d="M9.29,282.53s.4-2.17-.31-3.38"/>
                  <path class="cls-9" d="M8.66,282.77s-.34-2.61-1.8-2.89"/>
                  <path class="cls-10" d="M7.89,282.84s-.72-2.2-2.18-2.02"/>
                  <path class="cls-12" d="M10.32,282.95s-.24-2.77,1.2-3.59"/>
                  <path class="cls-24"
                        d="M10.97,281.57l-3.89,.93c.15,.63,3.84,15.52,17.01,22.79,8.64,4.77,19.22,5.09,31.45,.96,36.51-12.36,81.4-2.24,81.85-2.14l.9-3.9c-1.88-.43-46.43-10.48-84.03,2.25-11.11,3.76-20.59,3.54-28.2-.65-11.62-6.4-15.05-20.1-15.09-20.24Z"/>
                  <path class="cls-24"
                        d="M7.08,282.5s0-.46-.5-.83c1.02,.21,1.04,.42,1.04,.42l.4-1.25,.42,.98s.85-1.41,1.66-1.65c-.1,.38,0,1.25,0,1.25l1.41-1.1s-.58,.3-.55,1.25-.41,1.43-.67,1.52c-.26,.08-1.84,.29-1.95,.27-.1-.02-1.27-.85-1.27-.85Z"/>
                </g>
                <path class="cls-22"
                      d="M56.58,305.21c-12.23,4.14-22.81,3.82-31.45-.96-10.55-5.83-15.02-16.56-16.45-20.91-.15-.46-.27-.84-.35-1.14-.12-.41-.18-.67-.2-.74,0,0,0-.21-.15-.45l-.35,1.08s-.01-.06-.16-.14c-.13-.08-.39-.18-.88-.28,.48,.37,.49,.8,.49,.83,.16,.63,3.85,15.52,17.01,22.8,8.64,4.77,19.22,5.09,31.45,.95,36.51-12.35,81.41-2.24,81.86-2.13l.28-1.21c-6.06-1.27-47.2-9.18-81.1,2.3Z"/>
                <path class="cls-9" d="M.31,273.07s2.5,.58,4.33,3.5"/>
                <path class="cls-9" d="M5.52,270.65s0,3.88,1.06,5.54"/>
                <path class="cls-9" d="M11.05,270.84s-2.44,2.5-2.39,5.22"/>
              </g>
              <g>
                <path class="cls-24"
                      d="M261.89,306.08l-.05-4c26.53-.32,45.54-7.77,52.14-20.45,3.9-7.49,2.99-16.42-2.52-24.49-12.93-18.97-43.99-2.26-44.3-2.09l-1.92-3.51c1.41-.77,34.58-18.6,49.53,3.34,6.36,9.33,7.37,19.75,2.76,28.59-4.29,8.24-17.23,22.14-55.64,22.6Z"/>
                <g class="cls-30">
                  <path class="cls-21"
                        d="M315.35,286.97c-5.94,8.16-20.08,18.71-53.46,19.11l-.05-4c.4,0,.8,0,1.19-.02l.03,2.52c31.36-.38,45.74-9.71,52.29-17.61Z"/>
                  <path class="cls-21"
                        d="M267.17,255.05l-1.93-3.51c.16-.08,.7-.37,1.56-.79l1.53,2.8c.32-.17,31.38-16.88,44.3,2.09,5.51,8.07,6.42,17,2.52,24.49-.82,1.57-1.83,3.07-3.02,4.48,.7-.96,1.31-1.95,1.85-2.98,3.91-7.49,2.99-16.42-2.51-24.49-12.93-18.97-43.99-2.26-44.3-2.09Z"/>
                </g>
              </g>
            </g>
            <g>
              <g>
                <path class="cls-26"
                      d="M220.91,208.5c-2.28,10.17-15.68,13.46-54.66,12.87-38.97,.59-52.38-2.7-54.65-12.87-2.26-13.09,3.26-27.6,11.94-43.58,2.64-4.86,4.69-9.87,6.28-14.64,1.25-3.77,2.23-7.39,2.96-10.65,.47-2,.83-3.87,1.14-5.56,.2-1.18,.38-2.26,.53-3.24h0c.04-.23,.07-.44,.09-.66,.08-.49,.14-.96,.2-1.39,.05-.44,.1-.84,.14-1.2,.21-1.77,.27-2.78,.27-2.78l4.5-.15,2.01-.08,4.57-.16,15.87-.57c0-.19-.01-.3-.01-.3l4.16,.16,4.16-.16s-.01,.11-.01,.3l23.08,.83,2.81,.1h.01l1.05,.03s.01,.22,.05,.6v.02c.02,.19,.04,.44,.06,.73,.05,.55,.12,1.27,.22,2.15,.04,.35,.08,.73,.13,1.14,.14,1.22,.32,2.65,.55,4.26h0c.08,.54,.16,1.1,.25,1.67,.18,1.19,.39,2.46,.63,3.81,.56,3.21,1.28,6.83,2.19,10.71,.04,.12,.07,.26,.1,.39,.17,.72,.35,1.45,.54,2.19,1,3.96,2.21,8.17,3.65,12.45,5.1,15.15,17.36,31.02,15.19,43.58Z"/>
                <path class="cls-26"
                      d="M109.34,73.76c-1.72-4.3-2.23-9.22-3-16.77-1.13-11.16-1.69-20.41-2.2-26.12-.66-7.33,3.36-5.89,6.23-4.71,5.14,2.1,12.41,7.03,16.11,9.69,5.76,4.15,14.8,15.93,14.56,21.39-5.72,7.2-16.04,14.56-31.7,16.52Z"/>
                <path class="cls-27"
                      d="M141.05,57.25c-.28,.35-.56,.7-.86,1.05-1.91-5.98-9.18-15.03-14.09-18.57-3.69-2.67-10.97-7.59-16.1-9.69-2.11-.86-4.82-1.87-5.87,.53-.52-6.98,3.42-5.57,6.26-4.41,5.14,2.1,12.41,7.02,16.11,9.69,5.76,4.15,14.8,15.93,14.56,21.39Z"/>
                <path class="cls-6"
                      d="M114.29,72.94c-1.26-3.32-.81-7.63-1.53-13.39-1.05-8.51-1.67-15.56-2.16-19.91-.63-5.59,2.07-4.38,4-3.41,3.46,1.73,8.41,5.68,10.93,7.8,3.93,3.31,11.84,13.09,11.83,17.23-3.59,5.32-12.76,10.62-23.08,11.68Z"/>
                <path class="cls-8"
                      d="M137.29,60.55c-2.65-4.09-6.53-8.51-8.92-10.52-2.52-2.12-7.47-6.06-10.93-7.8-1.93-.97-4.63-2.18-4,3.41,.49,4.35,1.1,11.4,2.16,19.91,.33,2.68,.41,5.04,.53,7.14-.61,.1-1.23,.18-1.85,.24-1.25-3.31-.81-7.63-1.52-13.39-1.05-8.51-1.67-15.55-2.16-19.91-.63-5.59,2.07-4.39,4.01-3.42,3.46,1.73,8.41,5.68,10.93,7.8,3.72,3.14,11.01,12.07,11.76,16.52Z"/>
                <path class="cls-5"
                      d="M196.03,50.21c2.22,8.98,29.75,24.96,33.6,21.66,2.79-2.39,3.14-16.73,3.24-20.38,.31-11.19-1.12-19-.12-23.2,.99-4.2-2.26-8.24-9.37-3.85-7.11,4.39-19.57,13.81-27.34,25.77Z"/>
                <path class="cls-5"
                      d="M196.03,50.21c2.22,8.98,29.75,24.96,33.6,21.66,2.79-2.39,3.14-16.73,3.24-20.38,.31-11.19-1.12-19-.12-23.2,.99-4.2-2.26-8.24-9.37-3.85-7.11,4.39-19.57,13.81-27.34,25.77Z"/>
                <path class="cls-26"
                      d="M196.03,50.21c2.22,8.98,29.75,24.96,33.6,21.66,2.79-2.39,3.14-16.73,3.24-20.38,.31-11.19-1.12-19-.12-23.2,.99-4.2-2.26-8.24-9.37-3.85-7.11,4.39-19.57,13.81-27.34,25.77Z"/>
                <path class="cls-27"
                      d="M229.62,71.87c-.41,.35-1.08,.48-1.96,.42,1.76-4.71,2.01-15.39,2.11-18.47,.31-11.19-1.12-19-.13-23.2,1-4.21-2.26-8.24-9.37-3.85-1.6,.99-3.46,2.22-5.48,3.69,3.21-2.51,6.19-4.55,8.57-6.02,7.11-4.39,10.36-.35,9.37,3.85-1,4.21,.43,12.02,.12,23.2-.1,3.65-.45,17.99-3.24,20.38Z"/>
                <path class="cls-6"
                      d="M198.97,55.1c1.32,5.35,19.45,17.05,21.74,15.08,1.66-1.42,4.96-13.18,5.77-21.4,.66-6.64-.66-11.32-.07-13.83,.59-2.5-1.34-4.91-5.58-2.29-4.24,2.62-17.22,15.31-21.86,22.43Z"/>
                <path class="cls-8"
                      d="M226.48,48.78c-.81,8.22-4.11,19.97-5.77,21.39-.13,.12-.31,.18-.54,.21,1.44-4.52,2.93-11.06,3.44-16.22,.66-6.64-.66-11.32-.07-13.83,.59-2.5-1.34-4.91-5.58-2.29-3.46,2.13-12.76,10.99-18.58,18.05-.19-.36-.32-.69-.4-1.01,4.63-7.13,17.62-19.82,21.86-22.43,4.24-2.62,6.17-.21,5.58,2.29-.59,2.5,.73,7.19,.07,13.83Z"/>
                <path class="cls-26"
                      d="M238.4,97.6c.25,7.16-1.71,13.48-5.15,18.92-2.17,3.45-4.94,6.55-8.1,9.29-.62,.53-1.24,1.05-1.89,1.55-.64,.51-1.29,1-1.96,1.47-.5,.35-1.01,.71-1.53,1.05s-1.04,.68-1.57,1c-1.64,1.02-3.33,1.96-5.07,2.82-.09,.04-.19,.09-.29,.13-.19,.09-.39,.17-.61,.26h-.01c-.14,.05-.28,.11-.43,.16-.13,.05-.26,.09-.4,.14-.41,.14-.86,.28-1.35,.42-.32,.09-.66,.18-1.02,.27-.26,.07-.54,.14-.82,.21-.17,.04-.36,.08-.54,.13,0,0-.01,0-.02,0-.49,.11-1.01,.23-1.55,.34-.63,.13-1.3,.26-2,.39-.89,.18-1.82,.34-2.79,.5h-.01c-.29,.05-.59,.09-.89,.14-.52,.08-1.05,.16-1.59,.24-.04,0-.08,0-.12,.02-.03,0-.07,0-.11,.02h-.03c-.45,.07-.92,.13-1.39,.2-.56,.08-1.13,.15-1.7,.23l-.21,.03s-.05,0-.07,0c-.84,.1-1.69,.21-2.56,.31-.5,.06-1,.12-1.51,.18-.48,.05-.97,.1-1.46,.15l-1.14,.12c-.74,.07-1.49,.15-2.24,.22-.65,.06-1.29,.11-1.95,.17-.32,.03-.65,.06-.98,.08-.98,.08-1.97,.16-2.97,.23-.67,.05-1.34,.1-2.01,.14-.91,.06-1.82,.12-2.74,.17-.41,.02-.83,.04-1.24,.07-.36,.01-.72,.03-1.09,.05-.6,.03-1.2,.05-1.81,.08-.49,.02-.97,.04-1.47,.06-.6,.02-1.2,.04-1.8,.05-.42,.02-.84,.03-1.27,.04l-1.56,.03c-8.95,.16-17.48-.17-23.97-1.23-.33-.05-.65-.11-.98-.16-.31-.04-.62-.08-.93-.13-.8-.11-1.6-.21-2.4-.31-.03,0-.06,0-.08,0-.12-.02-.24-.03-.36-.05l-1.56-.18h-.01c-.55-.07-1.1-.13-1.65-.2-.53-.06-1.06-.13-1.6-.2-.48-.07-.95-.13-1.42-.2l-.18-.03c-.53-.08-1.06-.16-1.59-.26-.53-.08-1.06-.18-1.59-.29-.51-.11-1.01-.22-1.52-.34-.03-.01-.07-.01-.1-.02-.44-.11-.88-.22-1.32-.35-.06-.01-.13-.03-.19-.05-3.31-.95-6.35-2.36-9.12-4.16-.46-.3-.92-.61-1.36-.93s-.86-.65-1.28-.98c0,0-.03-.02-.04-.03-.5-.38-.99-.79-1.46-1.22-.09-.08-.18-.16-.27-.25-1.87-1.67-3.57-3.56-5.12-5.63-.94-1.26-1.68-2.64-2.24-4.1-2.44-6.27-1.76-14.04-1.06-20.34,.33-3.05,.79-6.06,1.24-9.09,.89-5.87,2.7-11.6,5.58-16.7,1.26-2.27,2.75-4.41,4.44-6.38h0c.67-.79,1.37-1.54,2.12-2.26,1.81-1.78,3.82-3.37,6.05-4.75,3.16-1.96,6.68-3.74,10.49-5.29,.49-.2,.98-.4,1.48-.59h.01c1.12-.44,2.27-.86,3.44-1.26,.73-.25,1.48-.5,2.24-.73,0,0,.01-.01,.01,0,5.7-1.8,11.83-3.14,18.18-3.99h.01c5.49-.73,11.13-1.09,16.8-1.03,2.7,.03,5.41,.08,8.11,.2,5.22,.23,10.41,.7,15.43,1.71h.01c1.95,.4,3.89,.88,5.78,1.47h.01c.52,.15,1.04,.32,1.55,.49,5.14,1.75,9.98,4.28,14.35,7.97,1.11,.95,2.19,1.97,3.25,3.07,.31,.32,.61,.65,.91,.98,.02,.01,.03,.04,.05,.05,.11,.12,.21,.24,.31,.37,.13,.14,.26,.29,.38,.44,.32,.36,.62,.73,.93,1.12h0s.01,.01,.01,.01c.01,0,.02,.02,.02,.03,.33,.41,.65,.82,.97,1.26,.17,.23,.33,.45,.5,.69l.03,.03c.05,.07,.11,.15,.16,.22,.2,.28,.38,.57,.58,.86,.19,.27,.38,.56,.56,.85,.11,.16,.22,.33,.32,.5,.09,.14,.18,.28,.28,.43,.1,.17,.2,.34,.3,.52,.24,.4,.48,.79,.71,1.2h0c.17,.31,.33,.6,.49,.89,.92,1.66,1.75,3.28,2.51,4.86,.59,1.24,1.13,2.46,1.62,3.65,.25,.6,.48,1.19,.71,1.78,.23,.58,.44,1.17,.64,1.74,.2,.58,.39,1.16,.57,1.72,.22,.7,.42,1.4,.61,2.09s.37,1.37,.52,2.05c.31,1.34,.55,2.66,.74,3.94,.04,.28,.08,.55,.11,.84h0c.04,.28,.07,.57,.09,.85,.01,.07,.02,.15,.03,.23l.03,.24c0,.12,0,.23,.02,.34,.01,.12,.02,.24,.03,.35,.04,.54,.07,1.07,.09,1.59Z"/>
                <g>
                  <path class="cls-23"
                        d="M156.65,94.43l-.28-2.99c-.09-1.59-1.14-1.75-1.71-.12l-.17,.74c-.4,2.18-1.18,2.79-3.47,2.36l-42.05-6.21c-1.77-.37-1.77,2.88-.44,3.05l44.91,6.21c1.8,.25,3.21-.71,3.2-3.06Z"/>
                  <path class="cls-14" d="M154.88,97.67c-1.88,31.41-49.1,26.67-45.54-6.3l45.54,6.3Z"/>
                  <path class="cls-15"
                        d="M154.72,99.5c-3.52,28.92-47.47,24.34-45.5-6.64,1.79,25.97,38.82,29.96,45.5,6.64Z"/>
                  <path class="cls-23" d="M148.48,96.57c-1.35,22.63-35.37,19.21-32.8-4.54l32.8,4.54Z"/>
                  <path class="cls-16"
                        d="M121.48,97.97c-6.04,2.16-8.55,6.52-5.93,7.13s6.81-3.93,7.74-4.82c1.89-1.81,1.38-3.46-1.81-2.31Z"/>
                  <path class="cls-16"
                        d="M123.02,104.41c-4.13,1.48-5.85,4.46-4.05,4.88,1.79,.42,4.65-2.69,5.29-3.3,1.29-1.24,.95-2.36-1.24-1.58Z"/>
                </g>
                <g>
                  <path class="cls-23"
                        d="M223.62,90.95l-44.89,6.21c-2.81,.36-3.9-.56-3.75-3.58,.03-.62,.23-2.45,.23-2.45,.11-1.83,1.47-1.06,1.69-.12h0c.41,3.29,2.42,3.36,4.48,3.05l42.01-6.2c2.25-.29,2.38,2.86,.24,3.09Z"/>
                  <path class="cls-14" d="M176.77,97.44c1.88,31.41,49.1,26.67,45.54-6.3l-45.54,6.3Z"/>
                  <path class="cls-15"
                        d="M177.3,101.54c7.86,21.74,43.75,17.21,45.15-8.53,1.54,29.79-39.68,34.81-45.15,8.53Z"/>
                  <path class="cls-23" d="M183.16,96.33c1.35,22.63,35.37,19.21,32.8-4.54l-32.8,4.54Z"/>
                  <path class="cls-16"
                        d="M210.17,97.74c6.04,2.16,8.55,6.52,5.93,7.13-2.62,.61-6.81-3.93-7.74-4.82-1.89-1.81-1.38-3.46,1.81-2.31Z"/>
                  <path class="cls-16"
                        d="M208.63,104.17c4.13,1.48,5.85,4.46,4.05,4.88-1.79,.42-4.65-2.69-5.29-3.3-1.29-1.24-.95-2.36,1.24-1.58Z"/>
                </g>
                <path class="cls-6"
                      d="M170.22,105.83c-.55-1.33-8.92-1.33-9.78,.35-.67,1.31,2.78,5.91,4.88,5.91,1.62,0,5.61-4.51,4.89-6.26Z"/>
                <path class="cls-7"
                      d="M165.34,112.09c-1.67,0-4.17-2.87-4.82-4.73,1.06,1.44,2.59,2.79,3.73,2.78,1.3,0,4.12-2.9,4.82-4.95,.62,.16,1.04,.37,1.15,.64,.72,1.75-3.27,6.25-4.89,6.26Z"/>
                <path class="cls-13"
                      d="M260.4,115.88c-1.22-.2-2.65-1.06-2.41-2.27,.14-.69,.83-1.17,1.53-1.27,.7-.09,1.4,.11,2.07,.34,1.64,.56,3.49,1.76,3.31,3.49-.09,.94-.81,1.72-1.65,2.15s-1.8,.57-2.73,.7c-2.37,.34-5.09,.57-6.83-1.07-.51-.48-.92-1.12-1.58-1.38-1.35-.53-2.66,.81-3.53,1.97-.87,1.17-2.27,2.46-3.58,1.81-.89-.44-1.16-1.56-1.77-2.34-.9-1.18-2.72-1.55-4.01-.81-.51,.29-.93,.71-1.45,.99-.51,.27-1.21,.34-1.64-.06-.21-.19-.32-.48-.49-.72-.5-.71-1.45-.97-2.32-.9-.02,0-.05,0-.07,0-.83,.08-1.62,.42-2.42,.71-1.72,.61-3.5,.97-5.31,1.22-1.44,.19-2.9,.31-4.36,.42-1.14,.1-2.28,.18-3.4,.3-8.39,.85-13.81,4.1-22.07,2.45m62.73,9.89c1.02,0,2.1-.04,2.95-.61,.85-.56,1.33-1.82,.72-2.64-.33-.46-.9-.68-1.44-.83-2.84-.82-5.99-.53-8.64,.77-1.02,.5-2.02,1.16-3.16,1.18-1.55,.02-2.9-1.18-4.45-1.25-1.42-.07-2.69,.81-4.03,1.28-2.32,.82-5.04,.39-6.99-1.12-.64-.5-1.33-1.14-2.13-.99-.29,.05-.54,.21-.79,.37-1.34,.92-2.54,2.25-4.15,2.45-1.17,.15-2.31-.32-3.4-.74-.5-.19-1.03-.38-1.61-.55h-.01c-1.03-.32-2.17-.61-3.4-.87-1.01-.22-2.08-.42-3.19-.6-6.57-1.1-14.37-1.56-19.01-1.33m-1.43,4.67s.07,.01,.11,.02c.73,.15,1.58,.3,2.51,.45h.02c.58,.09,1.2,.19,1.84,.29,1.11,.17,2.29,.35,3.5,.54,.85,.14,1.73,.29,2.6,.44h.02c2.64,.46,5.24,.99,7.36,1.65h.01c.94,.29,1.79,.6,2.5,.94,2.06,.99,4.16,2.24,6.45,2.1,1.22-.07,2.42-.55,3.63-.38,1.62,.22,2.94,1.55,4.57,1.72,1.29,.12,2.56-.51,3.85-.41,.9,.07,1.73,.49,2.61,.66,1.62,.31,3.69-.07,4.56,1.32,.34,.53,.39,1.2,.71,1.74,.27,.47,.73,.8,1.2,1.05,2.37,1.27,5.25,.93,7.91,.56,.73-.1,1.59-.3,1.88-.99,.26-.63-.19-1.4-.82-1.68-.63-.27-1.37-.15-2.01,.11"/>
                <path class="cls-4"
                      d="M166.13,105.55c-1.43-.42-3.64-.12-4.87,.74-.25,.18-.17,.68,.17,.69,.75,.02,1.45-.27,2.18-.41,.8-.15,1.6-.18,2.4-.23,.39-.03,.52-.67,.12-.79Z"/>
                <g>
                  <ellipse class="cls-2" cx="130.13" cy="122.81" rx="16.85" ry="11.56"/>
                  <ellipse class="cls-1" cx="204.57" cy="120.89" rx="16.85" ry="11.56"/>
                </g>
                <path class="cls-3"
                      d="M152.48,92.23c-3.93,.04-7.93-1.25-11.77-2.07-3.7-.79-7.42-1.75-11.17-2.22-.52-.07-.59,.75-.12,.89,3.94,1.21,8.1,1.89,12.13,2.75,1.93,.41,3.86,.83,5.79,1.24,1.69,.36,3.57,.96,5.28,.45,.57-.17,.47-1.05-.14-1.04Z"/>
                <path class="cls-3"
                      d="M222.82,86.04c-7.23,.21-14.5,1.71-21.64,2.73-3.66,.52-7.32,1.05-10.99,1.57-1.97,.28-11.68,2.56-11.6-.99,.01-.6-.99-.77-1.08-.15-.52,3.5,4.05,3.34,6.31,3.17,4.22-.32,8.44-1.11,12.63-1.71,8.76-1.25,17.54-2.82,26.37-3.44,.75-.05,.77-1.21,0-1.18Z"/>
                <path class="cls-26"
                      d="M154.66,50.11c3.17-4.53,11.12-11.06,13.29-9.36,.59,.55-2.19,3.08-2.57,4.91,2.96-2.12,9.75-6.97,9.68-4.95,.06,1.02-1.38,2.96-2.08,4.43,1.59-1.48,9-5.82,9.3-3.69,.28,2.13,.12,4.32-.46,6.4-5.41,.67-10.83,1.35-16.24,2.02l-10.92,.23Z"/>
                <path class="cls-27"
                      d="M238.4,97.6c.25,7.16-1.71,13.48-5.15,18.92-2.17,3.45-4.94,6.55-8.1,9.29-.62,.53-1.24,1.05-1.89,1.55-.64,.5-1.3,.99-1.97,1.46-.5,.36-1.01,.71-1.52,1.06-.52,.34-1.04,.68-1.57,1-1.64,1.01-3.33,1.95-5.07,2.81-.09,.05-.19,.09-.29,.14-.19,.09-.39,.17-.61,.26h-.01c-.14,.05-.28,.11-.43,.16-.13,.05-.26,.09-.4,.14-.41,.14-.86,.28-1.35,.42-.32,.09-.66,.18-1.02,.27-.26,.07-.54,.14-.82,.21-.17,.04-.36,.08-.54,.13,0,0-.01,0-.02,0-.49,.11-1.01,.23-1.55,.34-.63,.13-1.3,.26-2,.39-1.16,.22-2.39,.43-3.69,.64-.52,.08-1.05,.16-1.59,.24-.04,0-.08,0-.12,.02s-.08,0-.12,0c0,0-.01,.01-.02,.01-.45,.07-.92,.13-1.39,.2-.56,.08-1.13,.15-1.7,.23l-.21,.03h-.07c-.84,.11-1.69,.22-2.56,.32-.5,.06-1,.12-1.51,.18-.48,.05-.97,.1-1.46,.15l-1.14,.12c-.74,.07-1.49,.15-2.24,.22-.65,.06-1.29,.11-1.95,.17-.32,.03-.65,.06-.98,.08-.98,.08-1.97,.16-2.97,.23-.67,.05-1.34,.1-2.01,.14-.91,.06-1.82,.12-2.74,.17-.41,.02-.83,.04-1.24,.07-.36,.01-.72,.03-1.09,.05-.6,.03-1.2,.05-1.81,.08-.49,.02-.97,.04-1.47,.06-.6,.02-1.2,.04-1.8,.05-.42,.02-.84,.03-1.27,.04l-1.56,.03c-8.95,.16-17.48-.17-23.97-1.23-.64-.1-1.27-.2-1.91-.29-.8-.11-1.6-.21-2.4-.31-.03,0-.06,0-.08,0-.64-.07-1.28-.15-1.92-.23h-.01c-.55-.07-1.1-.13-1.65-.2-.53-.06-1.06-.13-1.6-.2-.48-.07-.95-.13-1.42-.2l-.18-.03c-.53-.08-1.06-.16-1.59-.26-.53-.08-1.06-.18-1.59-.29-.51-.11-1.01-.22-1.52-.34-.03-.01-.07-.01-.1-.02-.44-.11-.88-.22-1.32-.35-.06-.01-.13-.03-.19-.05-3.31-.95-6.35-2.36-9.12-4.16-.46-.3-.92-.61-1.36-.93-.45-.32-.89-.65-1.32-1,.01,.01,.03,.01,.04,.02,1.66,.91,4.52,1.83,8.28,2.67h.02c2.45,.56,5.29,1.08,8.43,1.55,1.04,.16,2.1,.31,3.2,.46h.01c1.64,.22,3.34,.42,5.1,.61,.13,.01,.25,.02,.37,.03h0c1.39,.15,2.82,.29,4.27,.41,16.32,1.4,36.27,1.41,52.83-1.65l.78-.15c1.49-.28,2.94-.59,4.36-.93,.52-.12,1.03-.24,1.54-.38,.29-.07,.59-.15,.88-.23,4.63-1.22,8.85-2.75,12.46-4.64,2.43-1.26,4.59-2.68,6.41-4.28h.01c1.67-1.47,3.13-3.02,4.4-4.63,11.69-14.83,7.18-34.99,3.19-46.2h0c-.19-.53-.38-1.03-.56-1.51-1.49-3.95-2.79-6.51-2.97-6.86,.33,.41,.65,.82,.97,1.26,.17,.23,.33,.45,.5,.69l.03,.03c.05,.07,.11,.15,.16,.22,.2,.28,.38,.57,.58,.86,.19,.27,.38,.56,.56,.85,.11,.16,.22,.33,.32,.5,.09,.14,.18,.28,.28,.43,.1,.17,.2,.34,.3,.52,.24,.4,.48,.79,.71,1.2h0c.17,.31,.33,.6,.49,.89,.92,1.66,1.75,3.28,2.51,4.86,.59,1.24,1.13,2.46,1.62,3.65,.25,.6,.48,1.19,.71,1.78,.23,.58,.44,1.17,.64,1.74,.2,.58,.39,1.16,.56,1.72,.23,.7,.43,1.4,.62,2.09s.37,1.37,.52,2.05c.31,1.34,.55,2.66,.74,3.94,.04,.28,.08,.55,.11,.84h0c.04,.28,.07,.57,.09,.85,.01,.07,.02,.15,.03,.23s.02,.16,.02,.24c.01,.12,.02,.23,.03,.34,.01,.12,.02,.24,.03,.35,.04,.54,.07,1.07,.09,1.59Z"/>
                <path class="cls-13"
                      d="M144.57,121.62c-8.27,1.65-13.69-1.6-22.07-2.45-2.65-.27-5.33-.38-7.96-.75-1.74-.25-3.45-.6-5.11-1.19-.82-.3-1.63-.65-2.5-.72-.86-.07-1.82,.19-2.31,.9-.17,.24-.28,.53-.49,.72-.29,.27-.69,.32-1.09,.25-.2-.03-.39-.1-.56-.19-.51-.28-.94-.7-1.44-.99-1.3-.74-3.11-.37-4.02,.81-.6,.78-.88,1.9-1.77,2.34-1.3,.65-2.7-.64-3.57-1.81-.87-1.16-2.18-2.5-3.54-1.97-.65,.26-1.06,.9-1.58,1.38-1.73,1.64-4.46,1.41-6.82,1.07-.94-.13-1.89-.27-2.73-.7s-1.56-1.21-1.66-2.15c-.17-1.73,1.67-2.93,3.32-3.49,.66-.23,1.37-.43,2.07-.34,.69,.1,1.38,.58,1.52,1.27,.25,1.21-1.18,2.07-2.4,2.27m64.71,10.15c-6.9-.34-20.78,.85-27.22,3.35-.26,.1-.5,.2-.76,.3h-.01c-.86,.3-1.74,.56-2.63,.44-1.36-.17-2.43-1.15-3.55-2.01-.2-.15-.4-.3-.61-.44-.24-.16-.5-.32-.79-.37-.79-.15-1.49,.49-2.13,.99-1.94,1.51-4.66,1.94-6.98,1.12-1.34-.47-2.61-1.35-4.03-1.28-1.55,.07-2.9,1.27-4.46,1.25-1.13-.02-2.14-.68-3.15-1.18-2.66-1.3-5.8-1.59-8.64-.77-.55,.15-1.11,.37-1.44,.83-.61,.82-.14,2.08,.71,2.64,.86,.57,1.94,.62,2.96,.61m9.15,9.32c-.64-.26-1.38-.38-2.01-.11-.64,.28-1.08,1.05-.82,1.68,.28,.69,1.14,.89,1.88,.99,2.66,.37,5.54,.71,7.9-.56,.48-.25,.94-.58,1.21-1.05,.32-.54,.37-1.21,.7-1.74,.88-1.39,2.95-1.01,4.56-1.32,.89-.17,1.72-.59,2.62-.66,1.29-.1,2.56,.53,3.85,.41,1.63-.17,2.95-1.5,4.57-1.72,1.21-.17,2.41,.31,3.63,.38,1.76,.11,3.42-.61,5.04-1.4,.47-.24,.94-.47,1.41-.7,.59-.28,1.27-.55,2.02-.79h.01c.43-.14,.87-.28,1.34-.41,2.67-.74,5.95-1.32,9.06-1.82,.69-.11,1.37-.21,2.03-.32,.42-.06,.82-.12,1.22-.19h.01c1.83-.27,3.48-.54,4.78-.8"/>
              </g>
              <path class="cls-27"
                    d="M198.57,137.06c-.95-1.21-1.99-2.38-3.11-3.52-.29-.3-.59-.59-.89-.88-1.19-1.15-2.46-2.26-3.79-3.27-4.71-3.69-10.21-6.53-16.03-7.75-.15,.64-.37,1.14-.68,1.24-.66,.2-1.64-.79-2.41-1.73-3.62-.39-7.32-.12-11,.99-.48,.75-1.02,1.36-1.52,1.31-.23-.02-.44-.25-.64-.57-.99,.38-1.97,.85-2.95,1.35-2.1,1.07-4.16,2.38-6.18,3.96-.4,.31-.79,.63-1.18,.96-3.22,2.72-6.11,5.8-8.9,8.96-2.75,3.11-5.55,6.21-8.02,9.55-.02,.03-.08,.09-.09,.13,.42-1.8,2.68-8.27,2.96-9.79-.03,0,.98-.37,.96-.38-.64-.07,.64,.08,0,0,.68-.92,1.38-1.82,2.11-2.72,.15-.18,.3-.37,.45-.55,.51-.61,1.02-1.21,1.56-1.81,.26-.29,.51-.57,.77-.85,.74-.79,1.49-1.57,2.27-2.32,1.34-1.32,2.74-2.57,4.22-3.75,.18-.15,.36-.3,.54-.44,3.13-2.45,6.39-4.36,9.71-5.71-1.29-1.13-1.22-2.02-1.22-2.02l21.09-1.02c.04,.58-.11,1.13-.37,1.65,4.12,.96,8.08,2.63,11.73,4.8,4.03,2.36,7.68,5.33,10.77,8.58,.12,.11,.23,.23,.34,.35,.25,.26,.5,.53,.74,.8,.92,1.03,1.79,2.08,2.59,3.15,1.71-.59,3.52-.69,5.23-.34-.49,.11-1.01,.23-1.55,.34-.63,.13-1.3,.26-2,.39-.89,.18-1.82,.34-2.8,.5-.29,.05-.59,.09-.89,.14-.52,.08-1.05,.16-1.59,.24-.04,0-.08,0-.12,.02-.03,0-.07,0-.12,0Z"/>
            </g>
            <g>
              <path class="cls-28"
                    d="M283.47,320.44H50.63c-7.56,0-13.68-6.12-13.68-13.68H297.15c0,7.56-6.12,13.68-13.68,13.68Z"/>
              <g>
                <g>
                  <g>
                    <path class="cls-28"
                          d="M289.59,172.02v120.38c0,10.8-8.76,19.56-19.56,19.56H64.06c-10.8,0-19.55-8.75-19.55-19.55v-120.39c0-10.8,8.75-19.55,19.55-19.55h205.98c10.8,0,19.55,8.75,19.55,19.55Z"/>
                    <rect class="cls-17" x="52.5" y="157.67" width="229.1" height="149.09" rx="13.53" ry="13.53"/>
                    <g class="cls-32">
                      <path class="cls-20"
                            d="M292.14,306.76c-20.73,.58-41.46,.97-62.19,1.17-10.36,.14-20.73,.16-31.09,.25l-31.09,.07-31.1-.08c-10.36-.08-20.73-.11-31.09-.25-20.73-.2-41.46-.58-62.19-1.16h248.75Z"/>
                    </g>
                  </g>
                  <g>
                    <path class="cls-16"
                          d="M256.39,177.19v106.81c0,4.41-3.57,7.97-7.97,7.97H88.94c-4.41,0-7.97-3.56-7.97-7.97v-106.81c0-4.41,3.56-7.98,7.97-7.98H248.42c4.4,0,7.97,3.57,7.97,7.98Z"/>
                    <path class="cls-18"
                          d="M256.39,177.19v11.48H80.96v-11.48c0-4.41,3.56-7.98,7.97-7.98H248.42c4.4,0,7.97,3.57,7.97,7.98Z"/>
                    <g>
                      <circle class="cls-16" cx="91.84" cy="178.94" r="2.06"/>
                      <circle class="cls-16" cx="101.57" cy="178.94" r="2.06"/>
                      <circle class="cls-16" cx="111.3" cy="178.94" r="2.06"/>
                    </g>
                  </g>
                </g>
                <path class="cls-27"
                      d="M126.04,152.47h4.31c-1.02,1.9-1.95,3.77-2.82,5.58-.3,.63-.6,1.26-.89,1.88-1.13,2.42-2.24,4.82-3.32,7.22-2.78,6.16-5.36,12.32-7.48,18.59-.62,1.85-1.22,3.71-1.76,5.59-.05,.28-.07,.54-.08,.78,0,.07,0,.13,0,.19v.45c0,.06,0,.12,0,.18,.01,.12,.03,.23,.04,.33,.01,.04,.02,.09,.03,.13,.02,.1,.04,.19,.07,.27,0,.03,.01,.05,.02,.08,.11,.29,.23,.44,.29,.5h-.01s-.05-.04-.08-.06c-.27-.19-.88-.63-1.07-.82-.02-.02-.04-.02-.07-.03l.74,2.01c-.74-.26-.97-1.04-1.04-1.71-.05,.16-.1,.36-.15,.64-.16-.6-.33-.92-.47-1.08l.21,2.46c-.75-.57-.66-1.79-.5-2.6-.12,.02-.2,.12-.2,.12,0,0-.6,.44-.82,.42l-.7,1.75c-.04-.69,.27-1.46,.59-2.07-.06-.36-.24-.9-.52-1.02-.46,.75-1.24,1.71-2.23,1.75l1.61-1.58c-.81,.36-1.12,.13-1.12,.13,.86-.33,1.67-1.91,1.67-1.91h.01c3.14-11.08,7.88-21.62,12.88-32.32,.88-1.88,1.82-3.84,2.86-5.85Z"/>
                <path class="cls-27"
                      d="M219.23,157.25l-.26,.17c-.56,.35-1.31,.18-1.66-.39l-1.92-3.07-4.67,2.92,1.91,3.07c.36,.57,.19,1.31-.38,1.66l-.26,.17c-.57,.35-1.31,.18-1.66-.39l-1.92-3.07-2.94,1.83c-.99,.62-2.29,.32-2.91-.67l-4.23-6.76-.16-.25h19.61l-.08,.05,1.92,3.07c.35,.57,.18,1.31-.39,1.66Z"/>
              </g>
            </g>
            <g>
              <path class="cls-11" d="M111.55,189.3s-1.34,1.75-1.26,3.15"/>
              <path class="cls-9" d="M112.22,189.37s-.88,2.48,.29,3.39"/>
              <path class="cls-10" d="M112.94,189.66s-.36,2.29,1.03,2.79"/>
              <path class="cls-12" d="M110.82,188.46s-1.05,2.58-2.7,2.65"/>
              <path class="cls-24"
                    d="M202.44,132.91c-9.57-12.74-27.84-23.33-45.31-16.5-3.45,1.35-6.85,3.33-10.11,5.87-11.66,9.12-18.86,22.5-23.84,33.14-5,10.7-9.74,21.24-12.88,32.32,0,0-.01,0-.01,0,0,0-.81,1.58-1.67,1.91,0,0,.38,.29,1.43-.29,.57-.33,.86,.91,.86,1.24s.9-.33,.9-.33c0,0,.48-.67,.96,1.1,.14-.81,.29-1.15,.53-.91,.24,.24,1.19,.91,1.19,.91,0,0-.76-.5-.41-2.94,3.07-10.68,7.68-20.95,12.56-31.39,4.79-10.25,11.71-23.13,22.73-31.75,2.96-2.32,6.04-4.11,9.15-5.33,15.62-6.11,32.13,3.61,40.87,15.24,1.03,1.37,2.03,2.84,2.99,4.37l3.24-2.02c-1.01-1.62-2.08-3.18-3.17-4.64Z"/>
              <path class="cls-22"
                    d="M205.62,137.55l-3.24,2.02c-.96-1.53-1.96-3-2.99-4.37-8.74-11.62-25.25-21.35-40.87-15.23-3.11,1.21-6.18,3-9.16,5.32-11.02,8.62-17.93,21.5-22.73,31.75-4.88,10.43-9.49,20.7-12.56,31.38-.3,2.09,.21,2.76,.37,2.92-.13-.09-.5-.36-.8-.59-.02-.28-.03-.56-.03-.84,.03-1.57,.41-3.08,.84-4.58,.39-1.33,.81-2.63,1.25-3.94,.88-2.63,1.85-5.23,2.86-7.8,1.03-2.6,2.11-5.18,3.24-7.74,1.13-2.59,2.31-5.17,3.49-7.73,.44-.96,.89-1.91,1.33-2.87,4.8-10.25,11.71-23.13,22.73-31.75,2.97-2.32,6.04-4.11,9.16-5.33,15.62-6.11,32.13,3.62,40.87,15.24,1.03,1.37,2.03,2.84,2.99,4.36l2.43-1.51c.28,.42,.55,.85,.81,1.28Z"/>
              <g>
                <g>
                  <path class="cls-16" d="M175.08,115.58s-.04,4.11-1.01,4.41c-1.2,.37-3.53-3.28-3.53-3.28l4.54-1.13Z"/>
                  <path class="cls-16" d="M157.29,116.43s.85,4.03,1.85,4.12c1.25,.12,2.82-3.91,2.82-3.91l-4.67-.21Z"/>
                </g>
                <path class="cls-26" d="M154.82,114.07s3.49,7.67,10.91,1.72c3.95,4.51,11.16,1.55,10.89-2.25"/>
              </g>
              <g>
                <path class="cls-16"
                      d="M209.22,151.38h1.54c.32,0,.59,.26,.59,.59v6.23c0,.67-.54,1.21-1.21,1.21h-.3c-.67,0-1.21-.54-1.21-1.21v-6.23c0-.32,.26-.59,.59-.59Z"
                      transform="translate(-50.43 134.83) rotate(-31.99)"/>
                <path class="cls-27"
                      d="M202.07,152.47h-3.94l-2.19-3.51c-2.84-4.56-1.63-10.5,2.67-13.59,.18,1.19,.39,2.46,.63,3.81,.56,3.21,1.28,6.83,2.19,10.71,.04,.12,.07,.26,.1,.39,.17,.72,.35,1.45,.54,2.19Z"/>
                <rect class="cls-16" x="215.61" y="147.02" width="2.72" height="8.03" rx="1.21" ry="1.21"
                      transform="translate(-47.06 137.86) rotate(-31.99)"/>
                <path class="cls-19"
                      d="M219.38,148.57l-14.22,8.88c-.82,.51-1.91,.26-2.42-.56l-5.67-9.07c-2.97-4.75-1.52-11,3.23-13.97h0c4.75-2.97,11-1.52,13.97,3.23l5.67,9.07c.51,.82,.26,1.91-.56,2.42Z"/>
                <path class="cls-29"
                      d="M201.67,133.16c-3.75,3.19-4.67,8.73-1.98,13.04l6.59,10.55-1.17,.73c-.79,.49-1.83,.25-2.32-.54l-5.67-9.08c-2.96-4.75-1.52-11.08,3.23-14.03,.43-.27,.87-.5,1.33-.67Z"/>
              </g>
            </g>
          </g>
        </g>
      </g>
    </g>
  </g>
</svg>
