<svg width="147" height="152" viewBox="0 0 147 152" fill="none" xmlns="http://www.w3.org/2000/svg">
<g filter="url(#filter0_d_393_62)">
<path d="M46.1161 59.8801C36.0081 54.9686 27.4341 58.3503 23.7068 60.3723C10.3434 68.5092 18.9443 82.6139 19.2548 83.1033C19.5653 83.5926 22.0209 85.8096 22.7359 86.3855C23.4509 86.9614 23.7001 86.8033 30.5683 93.7706C30.7677 93.6441 32.3293 95.6276 33.0852 96.6351L34.9484 99.5713C35.4142 100.305 35.2589 100.061 36.5624 102.666C36.9668 102.752 41.0572 115.257 41.429 116.394C41.8009 117.531 42.0788 119.071 42.5446 119.805L44.563 122.986C54.2349 132.498 63.7804 127.379 67.3442 123.63C67.4273 123.578 67.9676 122.96 69.4644 120.912C71.3339 119.451 73.5958 111.998 74.4931 108.454C74.6292 107.567 74.9644 105.341 75.216 103.534C75.4675 101.727 76.7586 98.4367 77.3728 97.0174L81.4946 87.5377L83.0591 81.7401C83.3013 79.1839 82.7481 72.8769 78.5969 68.0979C73.4079 62.1242 67.2141 62.2793 46.1161 59.8801Z" fill="white" fill-opacity="0.66" shape-rendering="crispEdges"/>
<path d="M23.7068 60.3723L23.5875 60.1523L23.5768 60.1588L23.7068 60.3723ZM46.1161 59.8801L46.0068 60.1049L46.0878 60.1285L46.1161 59.8801ZM78.5969 68.0979L78.4081 68.2618L78.4081 68.2618L78.5969 68.0979ZM83.0591 81.7401L83.3004 81.8052L83.3059 81.7848L83.3079 81.7637L83.0591 81.7401ZM81.4946 87.5377L81.7238 87.6374L81.7312 87.6206L81.736 87.6029L81.4946 87.5377ZM77.3728 97.0174L77.1435 96.9177L77.1433 96.9181L77.3728 97.0174ZM75.216 103.534L74.9683 103.5L74.9683 103.5L75.216 103.534ZM74.4931 108.454L74.7354 108.516L74.7384 108.504L74.7402 108.492L74.4931 108.454ZM69.4644 120.912L69.3105 120.715L69.2831 120.736L69.2626 120.765L69.4644 120.912ZM67.3442 123.63L67.2102 123.419L67.1842 123.436L67.163 123.458L67.3442 123.63ZM44.563 122.986L44.3519 123.12L44.3673 123.144L44.3877 123.164L44.563 122.986ZM41.429 116.394L41.1914 116.472L41.1914 116.472L41.429 116.394ZM36.5624 102.666L36.3388 102.777L36.3925 102.885L36.51 102.91L36.5624 102.666ZM33.0852 96.6351L33.2963 96.5012L33.291 96.4929L33.2852 96.4851L33.0852 96.6351ZM30.5683 93.7706L30.3903 93.9461L30.5319 94.0898L30.7023 93.9817L30.5683 93.7706ZM23.826 60.5921C27.5193 58.5885 36.0023 55.2437 46.0068 60.1049L46.2253 59.6552C36.0139 54.6935 27.3489 58.1121 23.5876 60.1526L23.826 60.5921ZM46.0878 60.1285C56.6515 61.3297 63.4521 61.8886 68.2713 62.8933C73.0691 63.8935 75.8594 65.3277 78.4081 68.2618L78.7856 67.934C76.1453 64.8944 73.2442 63.4193 68.3734 62.4038C63.524 61.3928 56.6787 60.8296 46.1443 59.6317L46.0878 60.1285ZM78.4081 68.2618C82.5004 72.973 83.0483 79.2036 82.8102 81.7165L83.3079 81.7637C83.5543 79.1643 82.9957 72.7808 78.7856 67.934L78.4081 68.2618ZM82.8177 81.675L81.2532 87.4726L81.736 87.6029L83.3004 81.8052L82.8177 81.675ZM81.2653 87.438L77.1435 96.9177L77.602 97.1171L81.7238 87.6374L81.2653 87.438ZM77.1433 96.9181C76.8342 97.6325 76.3557 98.8154 75.9226 100.047C75.4911 101.275 75.0979 102.569 74.9683 103.5L75.4636 103.569C75.5856 102.692 75.9637 101.438 76.3942 100.213C76.8231 98.9936 77.2972 97.8216 77.6022 97.1167L77.1433 96.9181ZM74.9683 103.5C74.717 105.305 74.382 107.53 74.246 108.417L74.7402 108.492C74.8764 107.605 75.2118 105.377 75.4636 103.569L74.9683 103.5ZM74.2507 108.393C73.8036 110.159 73.0162 112.9 72.1086 115.378C71.6547 116.618 71.1725 117.787 70.6899 118.734C70.202 119.691 69.7308 120.387 69.3105 120.715L69.6184 121.109C70.1328 120.707 70.6454 119.923 71.1354 118.961C71.6308 117.989 72.1207 116.799 72.5781 115.55C73.4931 113.051 74.2853 110.294 74.7354 108.516L74.2507 108.393ZM69.2626 120.765C68.5153 121.787 68.0083 122.45 67.6787 122.864C67.5138 123.07 67.3945 123.213 67.3124 123.306C67.2713 123.353 67.241 123.385 67.22 123.407C67.1933 123.434 67.1938 123.43 67.2102 123.419L67.4781 123.841C67.5154 123.818 67.5509 123.783 67.5755 123.758C67.6058 123.728 67.643 123.687 67.6876 123.637C67.777 123.535 67.9019 123.386 68.0696 123.175C68.4052 122.755 68.9167 122.085 69.6663 121.06L69.2626 120.765ZM67.163 123.458C65.4119 125.3 62.1838 127.483 58.2099 128.033C54.2507 128.581 49.5225 127.513 44.7383 122.807L44.3877 123.164C49.2754 127.971 54.156 129.099 58.2784 128.529C62.3862 127.96 65.7127 125.709 67.5254 123.803L67.163 123.458ZM44.7741 122.852L42.7557 119.671L42.3335 119.939L44.3519 123.12L44.7741 122.852ZM42.7557 119.671C42.5452 119.339 42.3675 118.805 42.1922 118.183C42.0218 117.578 41.8545 116.891 41.6666 116.317L41.1914 116.472C41.3754 117.034 41.5329 117.686 41.7109 118.318C41.884 118.933 42.0781 119.536 42.3335 119.939L42.7557 119.671ZM41.6666 116.317C41.4807 115.748 40.3647 112.336 39.2445 109.055C38.6845 107.415 38.1228 105.806 37.6755 104.6C37.452 103.998 37.2559 103.493 37.1021 103.135C37.0255 102.957 36.9572 102.809 36.8995 102.703C36.8711 102.65 36.8414 102.6 36.8111 102.56C36.7961 102.54 36.7763 102.515 36.7518 102.493C36.7315 102.475 36.6847 102.436 36.6147 102.421L36.51 102.91C36.4527 102.898 36.4203 102.868 36.4162 102.864C36.4079 102.856 36.406 102.853 36.4106 102.859C36.4195 102.871 36.4358 102.896 36.4597 102.94C36.5065 103.027 36.5679 103.158 36.6426 103.332C36.7914 103.679 36.984 104.174 37.2067 104.774C37.6517 105.973 38.2117 107.578 38.7713 109.217C39.8904 112.494 41.0055 115.904 41.1914 116.472L41.6666 116.317ZM36.7859 102.554C35.4874 99.9587 35.6342 100.185 35.1595 99.4373L34.7373 99.7052C35.1942 100.425 35.0304 100.163 36.3388 102.777L36.7859 102.554ZM35.1595 99.4373L33.2963 96.5012L32.8741 96.7691L34.7373 99.7052L35.1595 99.4373ZM33.2852 96.4851C32.9057 95.9793 32.3233 95.2275 31.8094 94.6167C31.5532 94.3121 31.3097 94.0375 31.1151 93.8453C31.019 93.7504 30.9267 93.6674 30.8457 93.611C30.8063 93.5836 30.7572 93.5534 30.703 93.5347C30.6573 93.5188 30.5449 93.4894 30.4344 93.5595L30.7023 93.9817C30.6167 94.036 30.5398 94.0073 30.5393 94.0071C30.5303 94.004 30.5358 94.0045 30.5597 94.0212C30.6053 94.0529 30.6735 94.1119 30.7637 94.201C30.9416 94.3766 31.1731 94.6371 31.4268 94.9386C31.9325 95.5397 32.5088 96.2834 32.8852 96.7852L33.2852 96.4851ZM30.7464 93.5951C27.3116 90.1108 25.5277 88.4038 24.5113 87.4949C23.4991 86.5897 23.2233 86.4571 22.8927 86.1908L22.5791 86.5802C22.9635 86.8898 23.1698 86.9661 24.178 87.8676C25.1821 88.7655 26.9569 90.4632 30.3903 93.9461L30.7464 93.5951ZM22.8927 86.1908C22.5421 85.9084 21.7545 85.2149 21.0136 84.5286C20.6437 84.186 20.288 83.8474 20.0061 83.565C19.7157 83.2739 19.5258 83.0638 19.4659 82.9693L19.0437 83.2372C19.139 83.3874 19.3726 83.638 19.6522 83.9182C19.9405 84.2071 20.3015 84.5505 20.6738 84.8954C21.417 85.5838 22.2147 86.2868 22.5791 86.5802L22.8927 86.1908ZM19.4659 82.9693C19.3183 82.7368 17.1138 79.1265 16.6015 74.5776C16.3458 72.307 16.5127 69.8117 17.5594 67.387C18.6049 64.9649 20.5358 62.5958 23.8368 60.5858L23.5768 60.1588C20.1961 62.2172 18.1908 64.6626 17.1003 67.1889C16.0109 69.7126 15.8418 72.2997 16.1047 74.6336C16.6295 79.2937 18.8807 82.9804 19.0437 83.2372L19.4659 82.9693Z" fill="#E4640A"/>
</g>
<g filter="url(#filter1_d_393_62)">
<ellipse cx="13.973" cy="16.8219" rx="13.973" ry="16.8219" transform="matrix(0.750757 0.660578 -0.667842 0.744303 88.3372 22.7873)" fill="white" fill-opacity="0.66" shape-rendering="crispEdges"/>
</g>
<g filter="url(#filter2_d_393_62)">
<ellipse cx="12.5764" cy="15.3964" rx="12.5764" ry="15.3964" transform="matrix(0.878027 0.47861 -0.492092 0.870543 49.9167 21.0845)" fill="white" fill-opacity="0.66" shape-rendering="crispEdges"/>
</g>
<g filter="url(#filter3_d_393_62)">
<ellipse cx="12.5802" cy="15.3919" rx="12.5802" ry="15.3919" transform="matrix(0.0400505 0.999198 -0.998441 0.0558187 113.918 93.6673)" fill="white" fill-opacity="0.66" shape-rendering="crispEdges"/>
</g>
<g filter="url(#filter4_d_393_62)">
<ellipse cx="13.2299" cy="17.3732" rx="13.2299" ry="17.3732" transform="matrix(0.158706 0.987326 -0.985152 0.171682 121.324 60.1687)" fill="white" fill-opacity="0.66" shape-rendering="crispEdges"/>
</g>
<defs>
<filter id="filter0_d_393_62" x="11.9957" y="57.0937" width="75.3613" height="79.5704" filterUnits="userSpaceOnUse" color-interpolation-filters="sRGB">
<feFlood flood-opacity="0" result="BackgroundImageFix"/>
<feColorMatrix in="SourceAlpha" type="matrix" values="0 0 0 0 0 0 0 0 0 0 0 0 0 0 0 0 0 0 127 0" result="hardAlpha"/>
<feOffset dy="4"/>
<feGaussianBlur stdDeviation="2"/>
<feComposite in2="hardAlpha" operator="out"/>
<feColorMatrix type="matrix" values="0 0 0 0 0 0 0 0 0 0 0 0 0 0 0 0 0 0 0.25 0"/>
<feBlend mode="normal" in2="BackgroundImageFix" result="effect1_dropShadow_393_62"/>
<feBlend mode="normal" in="SourceGraphic" in2="effect1_dropShadow_393_62" result="shape"/>
</filter>
<filter id="filter1_d_393_62" x="68.2224" y="28.982" width="38.7415" height="39.1123" filterUnits="userSpaceOnUse" color-interpolation-filters="sRGB">
<feFlood flood-opacity="0" result="BackgroundImageFix"/>
<feColorMatrix in="SourceAlpha" type="matrix" values="0 0 0 0 0 0 0 0 0 0 0 0 0 0 0 0 0 0 127 0" result="hardAlpha"/>
<feOffset dy="4"/>
<feGaussianBlur stdDeviation="2"/>
<feComposite in2="hardAlpha" operator="out"/>
<feColorMatrix type="matrix" values="0 0 0 0 0 0 0 0 0 0 0 0 0 0 0 0 0 0 0.25 0"/>
<feBlend mode="normal" in2="BackgroundImageFix" result="effect1_dropShadow_393_62"/>
<feBlend mode="normal" in="SourceGraphic" in2="effect1_dropShadow_393_62" result="shape"/>
</filter>
<filter id="filter2_d_393_62" x="35.9897" y="25.8105" width="34.786" height="37.3928" filterUnits="userSpaceOnUse" color-interpolation-filters="sRGB">
<feFlood flood-opacity="0" result="BackgroundImageFix"/>
<feColorMatrix in="SourceAlpha" type="matrix" values="0 0 0 0 0 0 0 0 0 0 0 0 0 0 0 0 0 0 127 0" result="hardAlpha"/>
<feOffset dy="4"/>
<feGaussianBlur stdDeviation="2"/>
<feComposite in2="hardAlpha" operator="out"/>
<feColorMatrix type="matrix" values="0 0 0 0 0 0 0 0 0 0 0 0 0 0 0 0 0 0 0.25 0"/>
<feBlend mode="normal" in2="BackgroundImageFix" result="effect1_dropShadow_393_62"/>
<feBlend mode="normal" in="SourceGraphic" in2="effect1_dropShadow_393_62" result="shape"/>
</filter>
<filter id="filter3_d_393_62" x="79.6774" y="94.4967" width="38.7526" height="33.1998" filterUnits="userSpaceOnUse" color-interpolation-filters="sRGB">
<feFlood flood-opacity="0" result="BackgroundImageFix"/>
<feColorMatrix in="SourceAlpha" type="matrix" values="0 0 0 0 0 0 0 0 0 0 0 0 0 0 0 0 0 0 127 0" result="hardAlpha"/>
<feOffset dy="4"/>
<feGaussianBlur stdDeviation="2"/>
<feComposite in2="hardAlpha" operator="out"/>
<feColorMatrix type="matrix" values="0 0 0 0 0 0 0 0 0 0 0 0 0 0 0 0 0 0 0.25 0"/>
<feBlend mode="normal" in2="BackgroundImageFix" result="effect1_dropShadow_393_62"/>
<feBlend mode="normal" in="SourceGraphic" in2="effect1_dropShadow_393_62" result="shape"/>
</filter>
<filter id="filter4_d_393_62" x="85.063" y="62.8123" width="42.4907" height="34.8027" filterUnits="userSpaceOnUse" color-interpolation-filters="sRGB">
<feFlood flood-opacity="0" result="BackgroundImageFix"/>
<feColorMatrix in="SourceAlpha" type="matrix" values="0 0 0 0 0 0 0 0 0 0 0 0 0 0 0 0 0 0 127 0" result="hardAlpha"/>
<feOffset dy="4"/>
<feGaussianBlur stdDeviation="2"/>
<feComposite in2="hardAlpha" operator="out"/>
<feColorMatrix type="matrix" values="0 0 0 0 0 0 0 0 0 0 0 0 0 0 0 0 0 0 0.25 0"/>
<feBlend mode="normal" in2="BackgroundImageFix" result="effect1_dropShadow_393_62"/>
<feBlend mode="normal" in="SourceGraphic" in2="effect1_dropShadow_393_62" result="shape"/>
</filter>
</defs>
</svg>
